<mxfile host="app.diagrams.net" agent="Mozilla/5.0 (Windows NT 10.0; Win64; x64) AppleWebKit/537.36 (KHTML, like Gecko) Chrome/139.0.0.0 Safari/537.36 Edg/139.0.0.0" version="28.1.0">
  <diagram name="Page-1" id="58cdce13-f638-feb5-8d6f-7d28b1aa9fa0">
    <mxGraphModel dx="1745" dy="826" grid="1" gridSize="10" guides="1" tooltips="1" connect="1" arrows="1" fold="1" page="1" pageScale="1" pageWidth="1100" pageHeight="850" background="none" math="0" shadow="0">
      <root>
        <mxCell id="0" />
        <mxCell id="1" parent="0" />
        <mxCell id="382b91b5511bd0f7-1" value="" style="ellipse;html=1;shape=startState;fillColor=#000000;strokeColor=#ff0000;rounded=1;shadow=0;comic=0;labelBackgroundColor=none;fontFamily=Verdana;fontSize=12;fontColor=#000000;align=center;direction=south;" parent="1" vertex="1">
          <mxGeometry x="160" y="46" width="30" height="30" as="geometry" />
        </mxCell>
        <mxCell id="382b91b5511bd0f7-6" value="Connect to database BLE.db" style="rounded=1;whiteSpace=wrap;html=1;arcSize=24;fillColor=#ffffc0;strokeColor=#FF0000;shadow=0;comic=0;labelBackgroundColor=none;fontFamily=Verdana;fontSize=12;fontColor=#000000;align=center;" parent="1" vertex="1">
          <mxGeometry x="115" y="106" width="120" height="60" as="geometry" />
        </mxCell>
        <mxCell id="24f968d109e7d6b4-3" value="" style="ellipse;html=1;shape=endState;fillColor=#000000;strokeColor=#ff0000;rounded=1;shadow=0;comic=0;labelBackgroundColor=none;fontFamily=Verdana;fontSize=12;fontColor=#000000;align=center;" parent="1" vertex="1">
          <mxGeometry x="10" y="316" width="30" height="30" as="geometry" />
        </mxCell>
        <mxCell id="3cde6dad864a17aa-12" style="edgeStyle=elbowEdgeStyle;html=1;labelBackgroundColor=none;endArrow=open;endSize=8;strokeColor=#ff0000;fontFamily=Verdana;fontSize=12;align=left;entryX=1;entryY=0.5;entryDx=0;entryDy=0;exitX=0;exitY=0.5;exitDx=0;exitDy=0;" parent="1" source="hBEnvzYEh9CuPVGx5UaX-15" target="24f968d109e7d6b4-3" edge="1">
          <mxGeometry relative="1" as="geometry">
            <mxPoint x="50" y="355.9999999999999" as="sourcePoint" />
            <mxPoint x="145" y="556" as="targetPoint" />
            <Array as="points">
              <mxPoint x="60" y="330" />
            </Array>
          </mxGeometry>
        </mxCell>
        <mxCell id="hBEnvzYEh9CuPVGx5UaX-20" value="No" style="edgeLabel;html=1;align=center;verticalAlign=middle;resizable=0;points=[];" parent="3cde6dad864a17aa-12" vertex="1" connectable="0">
          <mxGeometry x="-0.5463" relative="1" as="geometry">
            <mxPoint x="-11" y="-25" as="offset" />
          </mxGeometry>
        </mxCell>
        <mxCell id="-b5_aeEiTCpsvocbng9k-6" value="for m in messages" style="rhombus;whiteSpace=wrap;html=1;fillColor=#FFFFCC;strokeColor=#FF0000;" parent="1" vertex="1">
          <mxGeometry x="468" y="96" width="134" height="60" as="geometry" />
        </mxCell>
        <mxCell id="-b5_aeEiTCpsvocbng9k-25" value="&lt;h1 style=&quot;margin-top: 0px;&quot;&gt;initBLEcomm.py&lt;/h1&gt;" style="text;html=1;whiteSpace=wrap;overflow=hidden;rounded=0;" parent="1" vertex="1">
          <mxGeometry x="50" y="6" width="320" height="50" as="geometry" />
        </mxCell>
        <mxCell id="rV2Ys3GXxWUU0AGFriuB-3" style="edgeStyle=orthogonalEdgeStyle;html=1;labelBackgroundColor=none;endArrow=open;endSize=8;strokeColor=#ff0000;fontFamily=Verdana;fontSize=12;align=left;exitX=0.5;exitY=1;exitDx=0;exitDy=0;entryX=0.5;entryY=0;entryDx=0;entryDy=0;" parent="1" source="hBEnvzYEh9CuPVGx5UaX-8" target="hBEnvzYEh9CuPVGx5UaX-9" edge="1">
          <mxGeometry relative="1" as="geometry">
            <mxPoint x="462" y="258" as="sourcePoint" />
            <mxPoint x="461.521739130435" y="298" as="targetPoint" />
          </mxGeometry>
        </mxCell>
        <mxCell id="hBEnvzYEh9CuPVGx5UaX-10" value="Yes" style="edgeLabel;html=1;align=center;verticalAlign=middle;resizable=0;points=[];" parent="rV2Ys3GXxWUU0AGFriuB-3" vertex="1" connectable="0">
          <mxGeometry x="-0.0653" y="2" relative="1" as="geometry">
            <mxPoint as="offset" />
          </mxGeometry>
        </mxCell>
        <mxCell id="FOoScroTNqUPBx7kzsJf-6" style="edgeStyle=orthogonalEdgeStyle;html=1;labelBackgroundColor=none;endArrow=open;endSize=8;strokeColor=#ff0000;fontFamily=Verdana;fontSize=12;align=left;exitX=0.5;exitY=1;exitDx=0;exitDy=0;" parent="1" source="-b5_aeEiTCpsvocbng9k-6" target="hBEnvzYEh9CuPVGx5UaX-8" edge="1">
          <mxGeometry relative="1" as="geometry">
            <mxPoint x="458.5" y="258" as="sourcePoint" />
            <mxPoint x="591" y="218" as="targetPoint" />
          </mxGeometry>
        </mxCell>
        <mxCell id="hBEnvzYEh9CuPVGx5UaX-4" value="m != NULL" style="edgeLabel;html=1;align=center;verticalAlign=middle;resizable=0;points=[];" parent="FOoScroTNqUPBx7kzsJf-6" vertex="1" connectable="0">
          <mxGeometry x="-0.3225" relative="1" as="geometry">
            <mxPoint as="offset" />
          </mxGeometry>
        </mxCell>
        <mxCell id="FOoScroTNqUPBx7kzsJf-9" style="edgeStyle=orthogonalEdgeStyle;html=1;labelBackgroundColor=none;endArrow=open;endSize=8;strokeColor=#ff0000;fontFamily=Verdana;fontSize=12;align=left;exitX=1;exitY=0.5;exitDx=0;exitDy=0;entryX=0.5;entryY=0;entryDx=0;entryDy=0;" parent="1" source="382b91b5511bd0f7-1" target="382b91b5511bd0f7-6" edge="1">
          <mxGeometry relative="1" as="geometry">
            <mxPoint x="139.5" y="173" as="sourcePoint" />
            <mxPoint x="205" y="241" as="targetPoint" />
          </mxGeometry>
        </mxCell>
        <mxCell id="hBEnvzYEh9CuPVGx5UaX-1" value="f_MAC := False&lt;div&gt;f_RSSI := False&lt;/div&gt;&lt;div&gt;message_receive := False&lt;/div&gt;" style="rounded=1;whiteSpace=wrap;html=1;arcSize=24;fillColor=#ffffc0;strokeColor=#FF0000;shadow=0;comic=0;labelBackgroundColor=none;fontFamily=Verdana;fontSize=12;fontColor=#000000;align=center;" parent="1" vertex="1">
          <mxGeometry x="95" y="208" width="160" height="68" as="geometry" />
        </mxCell>
        <mxCell id="hBEnvzYEh9CuPVGx5UaX-2" value="Save in messages all the registers of BLE.BLE_Table" style="rounded=1;whiteSpace=wrap;html=1;arcSize=24;fillColor=#ffffc0;strokeColor=#FF0000;shadow=0;comic=0;labelBackgroundColor=none;fontFamily=Verdana;fontSize=12;fontColor=#000000;align=center;" parent="1" vertex="1">
          <mxGeometry x="115" y="401" width="120" height="60" as="geometry" />
        </mxCell>
        <mxCell id="hBEnvzYEh9CuPVGx5UaX-6" style="edgeStyle=orthogonalEdgeStyle;html=1;labelBackgroundColor=none;endArrow=open;endSize=8;strokeColor=#ff0000;fontFamily=Verdana;fontSize=12;align=left;exitX=0.5;exitY=0;exitDx=0;exitDy=0;entryX=1;entryY=0.5;entryDx=0;entryDy=0;" parent="1" source="-b5_aeEiTCpsvocbng9k-6" target="hBEnvzYEh9CuPVGx5UaX-15" edge="1">
          <mxGeometry relative="1" as="geometry">
            <mxPoint x="549.5000000000001" y="15.989999999999887" as="sourcePoint" />
            <mxPoint x="235.00000000000006" y="330.99" as="targetPoint" />
            <Array as="points">
              <mxPoint x="535" y="56" />
              <mxPoint x="290" y="56" />
              <mxPoint x="290" y="331" />
            </Array>
          </mxGeometry>
        </mxCell>
        <mxCell id="hBEnvzYEh9CuPVGx5UaX-7" value="m = NULL" style="edgeLabel;html=1;align=center;verticalAlign=middle;resizable=0;points=[];" parent="hBEnvzYEh9CuPVGx5UaX-6" vertex="1" connectable="0">
          <mxGeometry x="-0.8234" y="2" relative="1" as="geometry">
            <mxPoint x="-31" y="-2" as="offset" />
          </mxGeometry>
        </mxCell>
        <mxCell id="hBEnvzYEh9CuPVGx5UaX-8" value="&lt;div&gt;&lt;span style=&quot;background-color: transparent; color: light-dark(rgb(0, 0, 0), rgb(255, 255, 255));&quot;&gt;&lt;br&gt;&lt;/span&gt;&lt;/div&gt;&lt;div&gt;&lt;span style=&quot;background-color: transparent; color: light-dark(rgb(0, 0, 0), rgb(255, 255, 255));&quot;&gt;m has &quot;RSSIc&quot; prefix, 4 thresholds&lt;/span&gt;&lt;/div&gt;&lt;div&gt;&amp;nbsp;and 1 flag and f_RSSI = False&lt;/div&gt;" style="rhombus;whiteSpace=wrap;html=1;fillColor=#FFFFCC;strokeColor=#FF0000;" parent="1" vertex="1">
          <mxGeometry x="410.5" y="206" width="249" height="110" as="geometry" />
        </mxCell>
        <mxCell id="hBEnvzYEh9CuPVGx5UaX-9" value="coincidence_flag = True&amp;nbsp;" style="rhombus;whiteSpace=wrap;html=1;fillColor=#FFFFCC;strokeColor=#FF0000;" parent="1" vertex="1">
          <mxGeometry x="425" y="370" width="220" height="50" as="geometry" />
        </mxCell>
        <mxCell id="hBEnvzYEh9CuPVGx5UaX-11" value="&lt;div&gt;&lt;span style=&quot;background-color: transparent; color: light-dark(rgb(0, 0, 0), rgb(255, 255, 255));&quot;&gt;&lt;br&gt;&lt;/span&gt;&lt;/div&gt;&lt;div&gt;&lt;span style=&quot;background-color: transparent; color: light-dark(rgb(0, 0, 0), rgb(255, 255, 255));&quot;&gt;m is MAC request frame&amp;nbsp;&lt;/span&gt;&lt;/div&gt;&lt;div&gt;and f_MAC = False&lt;/div&gt;" style="rhombus;whiteSpace=wrap;html=1;fillColor=#FFFFCC;strokeColor=#FF0000;" parent="1" vertex="1">
          <mxGeometry x="830" y="175" width="230" height="70" as="geometry" />
        </mxCell>
        <mxCell id="hBEnvzYEh9CuPVGx5UaX-12" style="edgeStyle=orthogonalEdgeStyle;html=1;labelBackgroundColor=none;endArrow=open;endSize=8;strokeColor=#ff0000;fontFamily=Verdana;fontSize=12;align=left;exitX=1;exitY=0.5;exitDx=0;exitDy=0;entryX=0;entryY=0.5;entryDx=0;entryDy=0;" parent="1" source="hBEnvzYEh9CuPVGx5UaX-8" target="hBEnvzYEh9CuPVGx5UaX-11" edge="1">
          <mxGeometry relative="1" as="geometry">
            <mxPoint x="790" y="276" as="sourcePoint" />
            <mxPoint x="790" y="321" as="targetPoint" />
            <Array as="points">
              <mxPoint x="660" y="210" />
            </Array>
          </mxGeometry>
        </mxCell>
        <mxCell id="hBEnvzYEh9CuPVGx5UaX-13" value="No" style="edgeLabel;html=1;align=center;verticalAlign=middle;resizable=0;points=[];" parent="hBEnvzYEh9CuPVGx5UaX-12" vertex="1" connectable="0">
          <mxGeometry x="-0.0653" y="2" relative="1" as="geometry">
            <mxPoint x="-27" y="61" as="offset" />
          </mxGeometry>
        </mxCell>
        <mxCell id="hBEnvzYEh9CuPVGx5UaX-15" value="message_receive = False ?" style="rhombus;whiteSpace=wrap;html=1;fillColor=#FFFFCC;strokeColor=#FF0000;" parent="1" vertex="1">
          <mxGeometry x="80" y="306" width="190" height="50" as="geometry" />
        </mxCell>
        <mxCell id="hBEnvzYEh9CuPVGx5UaX-16" style="edgeStyle=orthogonalEdgeStyle;html=1;labelBackgroundColor=none;endArrow=open;endSize=8;strokeColor=#ff0000;fontFamily=Verdana;fontSize=12;align=left;exitX=0.5;exitY=1;exitDx=0;exitDy=0;entryX=0.5;entryY=0;entryDx=0;entryDy=0;" parent="1" source="hBEnvzYEh9CuPVGx5UaX-1" target="hBEnvzYEh9CuPVGx5UaX-15" edge="1">
          <mxGeometry relative="1" as="geometry">
            <mxPoint x="260" y="366" as="sourcePoint" />
            <mxPoint x="260" y="408" as="targetPoint" />
            <Array as="points">
              <mxPoint x="175" y="286" />
              <mxPoint x="175" y="286" />
            </Array>
          </mxGeometry>
        </mxCell>
        <mxCell id="hBEnvzYEh9CuPVGx5UaX-17" style="edgeStyle=orthogonalEdgeStyle;html=1;labelBackgroundColor=none;endArrow=open;endSize=8;strokeColor=#ff0000;fontFamily=Verdana;fontSize=12;align=left;exitX=0.5;exitY=1;exitDx=0;exitDy=0;entryX=0.5;entryY=0;entryDx=0;entryDy=0;" parent="1" source="382b91b5511bd0f7-6" target="hBEnvzYEh9CuPVGx5UaX-1" edge="1">
          <mxGeometry relative="1" as="geometry">
            <mxPoint x="290" y="96" as="sourcePoint" />
            <mxPoint x="290" y="126" as="targetPoint" />
          </mxGeometry>
        </mxCell>
        <mxCell id="hBEnvzYEh9CuPVGx5UaX-18" style="edgeStyle=orthogonalEdgeStyle;html=1;labelBackgroundColor=none;endArrow=open;endSize=8;strokeColor=#ff0000;fontFamily=Verdana;fontSize=12;align=left;exitX=0.5;exitY=1;exitDx=0;exitDy=0;entryX=0.5;entryY=0;entryDx=0;entryDy=0;" parent="1" source="hBEnvzYEh9CuPVGx5UaX-15" target="hBEnvzYEh9CuPVGx5UaX-2" edge="1">
          <mxGeometry relative="1" as="geometry">
            <mxPoint x="350" y="316" as="sourcePoint" />
            <mxPoint x="350" y="346" as="targetPoint" />
            <Array as="points">
              <mxPoint x="175" y="366" />
              <mxPoint x="175" y="366" />
            </Array>
          </mxGeometry>
        </mxCell>
        <mxCell id="hBEnvzYEh9CuPVGx5UaX-19" value="Yes" style="edgeLabel;html=1;align=center;verticalAlign=middle;resizable=0;points=[];" parent="hBEnvzYEh9CuPVGx5UaX-18" vertex="1" connectable="0">
          <mxGeometry x="0.0684" y="3" relative="1" as="geometry">
            <mxPoint x="12" as="offset" />
          </mxGeometry>
        </mxCell>
        <mxCell id="hBEnvzYEh9CuPVGx5UaX-22" value="Update init_data.ini with the thresholds received.&lt;div&gt;message_BLE := &quot;WCON0&quot;&amp;nbsp;&lt;/div&gt;" style="rounded=1;whiteSpace=wrap;html=1;arcSize=24;fillColor=#ffffc0;strokeColor=#FF0000;shadow=0;comic=0;labelBackgroundColor=none;fontFamily=Verdana;fontSize=12;fontColor=#000000;align=center;" parent="1" vertex="1">
          <mxGeometry x="315" y="470" width="170" height="68" as="geometry" />
        </mxCell>
        <mxCell id="hBEnvzYEh9CuPVGx5UaX-23" style="edgeStyle=orthogonalEdgeStyle;html=1;labelBackgroundColor=none;endArrow=open;endSize=8;strokeColor=#ff0000;fontFamily=Verdana;fontSize=12;align=left;entryX=0.5;entryY=0;entryDx=0;entryDy=0;" parent="1" target="hBEnvzYEh9CuPVGx5UaX-22" edge="1">
          <mxGeometry relative="1" as="geometry">
            <mxPoint x="424" y="400" as="sourcePoint" />
            <mxPoint x="734" y="435" as="targetPoint" />
            <Array as="points">
              <mxPoint x="399" y="400" />
            </Array>
          </mxGeometry>
        </mxCell>
        <mxCell id="hBEnvzYEh9CuPVGx5UaX-24" value="Yes" style="edgeLabel;html=1;align=center;verticalAlign=middle;resizable=0;points=[];" parent="hBEnvzYEh9CuPVGx5UaX-23" vertex="1" connectable="0">
          <mxGeometry x="-0.0653" y="2" relative="1" as="geometry">
            <mxPoint x="-2" y="6" as="offset" />
          </mxGeometry>
        </mxCell>
        <mxCell id="hBEnvzYEh9CuPVGx5UaX-26" value="&lt;div&gt;&lt;br&gt;&lt;/div&gt;Received thresholds = init_data.ini thresholds ?" style="rhombus;whiteSpace=wrap;html=1;fillColor=#FFFFCC;strokeColor=#FF0000;" parent="1" vertex="1">
          <mxGeometry x="564" y="475" width="220" height="75" as="geometry" />
        </mxCell>
        <mxCell id="hBEnvzYEh9CuPVGx5UaX-27" style="edgeStyle=orthogonalEdgeStyle;html=1;labelBackgroundColor=none;endArrow=open;endSize=8;strokeColor=#ff0000;fontFamily=Verdana;fontSize=12;align=left;entryX=0.5;entryY=0;entryDx=0;entryDy=0;exitX=1;exitY=0.5;exitDx=0;exitDy=0;" parent="1" source="hBEnvzYEh9CuPVGx5UaX-9" target="hBEnvzYEh9CuPVGx5UaX-26" edge="1">
          <mxGeometry relative="1" as="geometry">
            <mxPoint x="719" y="340" as="sourcePoint" />
            <mxPoint x="694" y="410" as="targetPoint" />
            <Array as="points">
              <mxPoint x="674" y="395" />
            </Array>
          </mxGeometry>
        </mxCell>
        <mxCell id="hBEnvzYEh9CuPVGx5UaX-28" value="No" style="edgeLabel;html=1;align=center;verticalAlign=middle;resizable=0;points=[];" parent="hBEnvzYEh9CuPVGx5UaX-27" vertex="1" connectable="0">
          <mxGeometry x="-0.0653" y="2" relative="1" as="geometry">
            <mxPoint x="-2" y="6" as="offset" />
          </mxGeometry>
        </mxCell>
        <mxCell id="hBEnvzYEh9CuPVGx5UaX-29" value="&lt;div&gt;&lt;span style=&quot;background-color: transparent; color: light-dark(rgb(0, 0, 0), rgb(237, 237, 237));&quot;&gt;message_BLE := &quot;WRSSIa:&quot; + init_data.ini thresholds&amp;nbsp;&lt;/span&gt;&lt;/div&gt;" style="rounded=1;whiteSpace=wrap;html=1;arcSize=24;fillColor=#ffffc0;strokeColor=#FF0000;shadow=0;comic=0;labelBackgroundColor=none;fontFamily=Verdana;fontSize=12;fontColor=#000000;align=center;" parent="1" vertex="1">
          <mxGeometry x="440" y="571" width="190" height="68" as="geometry" />
        </mxCell>
        <mxCell id="hBEnvzYEh9CuPVGx5UaX-30" style="edgeStyle=orthogonalEdgeStyle;html=1;labelBackgroundColor=none;endArrow=open;endSize=8;strokeColor=#ff0000;fontFamily=Verdana;fontSize=12;align=left;entryX=0.5;entryY=0;entryDx=0;entryDy=0;exitX=0;exitY=0.5;exitDx=0;exitDy=0;" parent="1" source="hBEnvzYEh9CuPVGx5UaX-26" target="hBEnvzYEh9CuPVGx5UaX-29" edge="1">
          <mxGeometry relative="1" as="geometry">
            <mxPoint x="804" y="430" as="sourcePoint" />
            <mxPoint x="833" y="510" as="targetPoint" />
            <Array as="points">
              <mxPoint x="535" y="512" />
            </Array>
          </mxGeometry>
        </mxCell>
        <mxCell id="hBEnvzYEh9CuPVGx5UaX-31" value="No" style="edgeLabel;html=1;align=center;verticalAlign=middle;resizable=0;points=[];" parent="hBEnvzYEh9CuPVGx5UaX-30" vertex="1" connectable="0">
          <mxGeometry x="-0.0653" y="2" relative="1" as="geometry">
            <mxPoint x="-2" y="6" as="offset" />
          </mxGeometry>
        </mxCell>
        <mxCell id="hBEnvzYEh9CuPVGx5UaX-32" value="&lt;div&gt;&lt;span style=&quot;background-color: transparent; color: light-dark(rgb(0, 0, 0), rgb(237, 237, 237));&quot;&gt;message_BLE := &quot;WSO&quot;&lt;/span&gt;&lt;/div&gt;" style="rounded=1;whiteSpace=wrap;html=1;arcSize=24;fillColor=#ffffc0;strokeColor=#FF0000;shadow=0;comic=0;labelBackgroundColor=none;fontFamily=Verdana;fontSize=12;fontColor=#000000;align=center;" parent="1" vertex="1">
          <mxGeometry x="737" y="571" width="160" height="68" as="geometry" />
        </mxCell>
        <mxCell id="hBEnvzYEh9CuPVGx5UaX-33" style="edgeStyle=orthogonalEdgeStyle;html=1;labelBackgroundColor=none;endArrow=open;endSize=8;strokeColor=#ff0000;fontFamily=Verdana;fontSize=12;align=left;entryX=0.5;entryY=0;entryDx=0;entryDy=0;exitX=1;exitY=0.5;exitDx=0;exitDy=0;" parent="1" source="hBEnvzYEh9CuPVGx5UaX-26" target="hBEnvzYEh9CuPVGx5UaX-32" edge="1">
          <mxGeometry relative="1" as="geometry">
            <mxPoint x="683" y="561" as="sourcePoint" />
            <mxPoint x="654" y="619" as="targetPoint" />
            <Array as="points">
              <mxPoint x="817" y="513" />
            </Array>
          </mxGeometry>
        </mxCell>
        <mxCell id="hBEnvzYEh9CuPVGx5UaX-34" value="Yes" style="edgeLabel;html=1;align=center;verticalAlign=middle;resizable=0;points=[];" parent="hBEnvzYEh9CuPVGx5UaX-33" vertex="1" connectable="0">
          <mxGeometry x="-0.0653" y="2" relative="1" as="geometry">
            <mxPoint x="-2" y="6" as="offset" />
          </mxGeometry>
        </mxCell>
        <mxCell id="hBEnvzYEh9CuPVGx5UaX-35" value="&lt;div&gt;&lt;span style=&quot;background-color: transparent; color: light-dark(rgb(0, 0, 0), rgb(237, 237, 237));&quot;&gt;Add message_BLE to BLE.BLE_table_Tx&lt;/span&gt;&lt;/div&gt;" style="rounded=1;whiteSpace=wrap;html=1;arcSize=24;fillColor=#ffffc0;strokeColor=#FF0000;shadow=0;comic=0;labelBackgroundColor=none;fontFamily=Verdana;fontSize=12;fontColor=#000000;align=center;" parent="1" vertex="1">
          <mxGeometry x="540" y="686" width="190" height="68" as="geometry" />
        </mxCell>
        <mxCell id="hBEnvzYEh9CuPVGx5UaX-36" style="edgeStyle=orthogonalEdgeStyle;html=1;labelBackgroundColor=none;endArrow=open;endSize=8;strokeColor=#ff0000;fontFamily=Verdana;fontSize=12;align=left;entryX=0.5;entryY=0;entryDx=0;entryDy=0;exitX=0.5;exitY=1;exitDx=0;exitDy=0;" parent="1" source="hBEnvzYEh9CuPVGx5UaX-22" target="hBEnvzYEh9CuPVGx5UaX-35" edge="1">
          <mxGeometry relative="1" as="geometry">
            <mxPoint x="394" y="549" as="sourcePoint" />
            <mxPoint x="535" y="779" as="targetPoint" />
            <Array as="points">
              <mxPoint x="399" y="656" />
              <mxPoint x="635" y="656" />
            </Array>
          </mxGeometry>
        </mxCell>
        <mxCell id="hBEnvzYEh9CuPVGx5UaX-38" style="edgeStyle=orthogonalEdgeStyle;html=1;labelBackgroundColor=none;endArrow=open;endSize=8;strokeColor=#ff0000;fontFamily=Verdana;fontSize=12;align=left;entryX=0.5;entryY=0;entryDx=0;entryDy=0;exitX=0.5;exitY=1;exitDx=0;exitDy=0;" parent="1" source="hBEnvzYEh9CuPVGx5UaX-29" target="hBEnvzYEh9CuPVGx5UaX-35" edge="1">
          <mxGeometry relative="1" as="geometry">
            <mxPoint x="614" y="649" as="sourcePoint" />
            <mxPoint x="535" y="779" as="targetPoint" />
            <Array as="points">
              <mxPoint x="535" y="656" />
              <mxPoint x="635" y="656" />
            </Array>
          </mxGeometry>
        </mxCell>
        <mxCell id="hBEnvzYEh9CuPVGx5UaX-39" style="edgeStyle=orthogonalEdgeStyle;html=1;labelBackgroundColor=none;endArrow=open;endSize=8;strokeColor=#ff0000;fontFamily=Verdana;fontSize=12;align=left;entryX=0.5;entryY=0;entryDx=0;entryDy=0;exitX=0.5;exitY=1;exitDx=0;exitDy=0;" parent="1" source="hBEnvzYEh9CuPVGx5UaX-32" target="hBEnvzYEh9CuPVGx5UaX-35" edge="1">
          <mxGeometry relative="1" as="geometry">
            <mxPoint x="694" y="649" as="sourcePoint" />
            <mxPoint x="535" y="779" as="targetPoint" />
            <Array as="points">
              <mxPoint x="817" y="656" />
              <mxPoint x="635" y="656" />
            </Array>
          </mxGeometry>
        </mxCell>
        <mxCell id="hBEnvzYEh9CuPVGx5UaX-40" value="&lt;div&gt;&lt;span style=&quot;background-color: transparent; color: light-dark(rgb(0, 0, 0), rgb(237, 237, 237));&quot;&gt;f_RSSI := True&lt;/span&gt;&lt;/div&gt;&lt;div&gt;&lt;span style=&quot;font-family: Helvetica;&quot;&gt;message_receive :=&lt;/span&gt;&lt;span style=&quot;background-color: transparent; color: light-dark(rgb(0, 0, 0), rgb(237, 237, 237));&quot;&gt;&lt;/span&gt;&lt;/div&gt;&lt;div&gt;&lt;span style=&quot;font-family: Helvetica;&quot;&gt;True&lt;/span&gt;&lt;/div&gt;" style="rounded=1;whiteSpace=wrap;html=1;arcSize=24;fillColor=#ffffc0;strokeColor=#FF0000;shadow=0;comic=0;labelBackgroundColor=none;fontFamily=Verdana;fontSize=12;fontColor=#000000;align=center;" parent="1" vertex="1">
          <mxGeometry x="130" y="753" width="125" height="55" as="geometry" />
        </mxCell>
        <mxCell id="hBEnvzYEh9CuPVGx5UaX-43" value="Add mac_ble_format to BLE.BLE_table_Tx&amp;nbsp;" style="rounded=1;whiteSpace=wrap;html=1;arcSize=24;fillColor=#ffffc0;strokeColor=#FF0000;shadow=0;comic=0;labelBackgroundColor=none;fontFamily=Verdana;fontSize=12;fontColor=#000000;align=center;" parent="1" vertex="1">
          <mxGeometry x="865" y="269" width="160" height="68" as="geometry" />
        </mxCell>
        <mxCell id="hBEnvzYEh9CuPVGx5UaX-44" value="f_MAC := True" style="rounded=1;whiteSpace=wrap;html=1;arcSize=24;fillColor=#ffffc0;strokeColor=#FF0000;shadow=0;comic=0;labelBackgroundColor=none;fontFamily=Verdana;fontSize=12;fontColor=#000000;align=center;" parent="1" vertex="1">
          <mxGeometry x="885" y="470" width="120" height="50" as="geometry" />
        </mxCell>
        <mxCell id="hBEnvzYEh9CuPVGx5UaX-46" style="edgeStyle=orthogonalEdgeStyle;html=1;labelBackgroundColor=none;endArrow=open;endSize=8;strokeColor=#ff0000;fontFamily=Verdana;fontSize=12;align=left;exitX=0.5;exitY=1;exitDx=0;exitDy=0;entryX=0.5;entryY=0;entryDx=0;entryDy=0;" parent="1" source="hBEnvzYEh9CuPVGx5UaX-11" target="hBEnvzYEh9CuPVGx5UaX-43" edge="1">
          <mxGeometry relative="1" as="geometry">
            <mxPoint x="816" y="196" as="sourcePoint" />
            <mxPoint x="816" y="226" as="targetPoint" />
          </mxGeometry>
        </mxCell>
        <mxCell id="hBEnvzYEh9CuPVGx5UaX-49" value="Yes" style="edgeLabel;html=1;align=center;verticalAlign=middle;resizable=0;points=[];" parent="hBEnvzYEh9CuPVGx5UaX-46" vertex="1" connectable="0">
          <mxGeometry x="-0.1919" y="-2" relative="1" as="geometry">
            <mxPoint x="17" as="offset" />
          </mxGeometry>
        </mxCell>
        <mxCell id="hBEnvzYEh9CuPVGx5UaX-50" style="edgeStyle=orthogonalEdgeStyle;html=1;labelBackgroundColor=none;endArrow=open;endSize=8;strokeColor=#ff0000;fontFamily=Verdana;fontSize=12;align=left;exitX=1;exitY=0.5;exitDx=0;exitDy=0;entryX=1;entryY=0.5;entryDx=0;entryDy=0;" parent="1" source="hBEnvzYEh9CuPVGx5UaX-11" target="-b5_aeEiTCpsvocbng9k-6" edge="1">
          <mxGeometry relative="1" as="geometry">
            <mxPoint x="880" y="176" as="sourcePoint" />
            <mxPoint x="1050" y="76" as="targetPoint" />
            <Array as="points">
              <mxPoint x="1090" y="210" />
              <mxPoint x="1090" y="126" />
            </Array>
          </mxGeometry>
        </mxCell>
        <mxCell id="hBEnvzYEh9CuPVGx5UaX-51" value="No" style="edgeLabel;html=1;align=center;verticalAlign=middle;resizable=0;points=[];" parent="hBEnvzYEh9CuPVGx5UaX-50" vertex="1" connectable="0">
          <mxGeometry x="-0.0653" y="2" relative="1" as="geometry">
            <mxPoint x="137" y="68" as="offset" />
          </mxGeometry>
        </mxCell>
        <mxCell id="hBEnvzYEh9CuPVGx5UaX-52" style="edgeStyle=orthogonalEdgeStyle;html=1;labelBackgroundColor=none;endArrow=open;endSize=8;strokeColor=#ff0000;fontFamily=Verdana;fontSize=12;align=left;exitX=0.5;exitY=1;exitDx=0;exitDy=0;entryX=0.5;entryY=0;entryDx=0;entryDy=0;" parent="1" source="hBEnvzYEh9CuPVGx5UaX-43" target="hBEnvzYEh9CuPVGx5UaX-62" edge="1">
          <mxGeometry relative="1" as="geometry">
            <mxPoint x="1070" y="336" as="sourcePoint" />
            <mxPoint x="1070" y="360" as="targetPoint" />
          </mxGeometry>
        </mxCell>
        <mxCell id="hBEnvzYEh9CuPVGx5UaX-54" style="edgeStyle=orthogonalEdgeStyle;html=1;labelBackgroundColor=none;endArrow=open;endSize=8;strokeColor=#ff0000;fontFamily=Verdana;fontSize=12;align=left;exitX=1;exitY=0.5;exitDx=0;exitDy=0;entryX=1;entryY=0.5;entryDx=0;entryDy=0;" parent="1" source="hBEnvzYEh9CuPVGx5UaX-44" target="-b5_aeEiTCpsvocbng9k-6" edge="1">
          <mxGeometry relative="1" as="geometry">
            <mxPoint x="1608" y="340" as="sourcePoint" />
            <mxPoint x="1150" y="256" as="targetPoint" />
            <Array as="points">
              <mxPoint x="1090" y="496" />
              <mxPoint x="1090" y="126" />
            </Array>
          </mxGeometry>
        </mxCell>
        <mxCell id="hBEnvzYEh9CuPVGx5UaX-56" value="Successful message acknowledgement" style="rhombus;whiteSpace=wrap;html=1;fillColor=#FFFFCC;strokeColor=#FF0000;" parent="1" vertex="1">
          <mxGeometry x="311" y="750" width="253" height="60" as="geometry" />
        </mxCell>
        <mxCell id="hBEnvzYEh9CuPVGx5UaX-57" style="edgeStyle=orthogonalEdgeStyle;html=1;labelBackgroundColor=none;endArrow=open;endSize=8;strokeColor=#ff0000;fontFamily=Verdana;fontSize=12;align=left;entryX=1;entryY=0.5;entryDx=0;entryDy=0;exitX=0.5;exitY=1;exitDx=0;exitDy=0;" parent="1" source="hBEnvzYEh9CuPVGx5UaX-35" target="hBEnvzYEh9CuPVGx5UaX-56" edge="1">
          <mxGeometry relative="1" as="geometry">
            <mxPoint x="1072" y="736" as="sourcePoint" />
            <mxPoint x="635" y="786" as="targetPoint" />
            <Array as="points">
              <mxPoint x="635" y="780" />
            </Array>
          </mxGeometry>
        </mxCell>
        <mxCell id="hBEnvzYEh9CuPVGx5UaX-59" style="edgeStyle=orthogonalEdgeStyle;html=1;labelBackgroundColor=none;endArrow=open;endSize=8;strokeColor=#ff0000;fontFamily=Verdana;fontSize=12;align=left;entryX=1;entryY=0.5;entryDx=0;entryDy=0;exitX=0;exitY=0.5;exitDx=0;exitDy=0;" parent="1" source="hBEnvzYEh9CuPVGx5UaX-56" target="hBEnvzYEh9CuPVGx5UaX-40" edge="1">
          <mxGeometry relative="1" as="geometry">
            <mxPoint x="508.5" y="816" as="sourcePoint" />
            <mxPoint x="935" y="858" as="targetPoint" />
            <Array as="points">
              <mxPoint x="255" y="780" />
            </Array>
          </mxGeometry>
        </mxCell>
        <mxCell id="hBEnvzYEh9CuPVGx5UaX-60" value="Yes" style="edgeLabel;html=1;align=center;verticalAlign=middle;resizable=0;points=[];" parent="hBEnvzYEh9CuPVGx5UaX-59" vertex="1" connectable="0">
          <mxGeometry x="-0.1515" y="1" relative="1" as="geometry">
            <mxPoint y="-11" as="offset" />
          </mxGeometry>
        </mxCell>
        <mxCell id="hBEnvzYEh9CuPVGx5UaX-62" value="Successful message acknowledgement" style="rhombus;whiteSpace=wrap;html=1;fillColor=#FFFFCC;strokeColor=#FF0000;" parent="1" vertex="1">
          <mxGeometry x="818.5" y="371" width="253" height="60" as="geometry" />
        </mxCell>
        <mxCell id="hBEnvzYEh9CuPVGx5UaX-63" style="edgeStyle=orthogonalEdgeStyle;html=1;labelBackgroundColor=none;endArrow=open;endSize=8;strokeColor=#ff0000;fontFamily=Verdana;fontSize=12;align=left;exitX=0.5;exitY=1;exitDx=0;exitDy=0;entryX=0.5;entryY=0;entryDx=0;entryDy=0;" parent="1" source="hBEnvzYEh9CuPVGx5UaX-62" target="hBEnvzYEh9CuPVGx5UaX-44" edge="1">
          <mxGeometry relative="1" as="geometry">
            <mxPoint x="1100" y="386" as="sourcePoint" />
            <mxPoint x="1100" y="420" as="targetPoint" />
          </mxGeometry>
        </mxCell>
        <mxCell id="hBEnvzYEh9CuPVGx5UaX-64" value="Yes" style="edgeLabel;html=1;align=center;verticalAlign=middle;resizable=0;points=[];" parent="hBEnvzYEh9CuPVGx5UaX-63" vertex="1" connectable="0">
          <mxGeometry x="-0.2044" y="2" relative="1" as="geometry">
            <mxPoint x="13" as="offset" />
          </mxGeometry>
        </mxCell>
        <mxCell id="hBEnvzYEh9CuPVGx5UaX-67" style="edgeStyle=orthogonalEdgeStyle;html=1;labelBackgroundColor=none;endArrow=open;endSize=8;strokeColor=#ff0000;fontFamily=Verdana;fontSize=12;align=left;exitX=1;exitY=0.5;exitDx=0;exitDy=0;entryX=1;entryY=0.5;entryDx=0;entryDy=0;" parent="1" source="hBEnvzYEh9CuPVGx5UaX-62" target="-b5_aeEiTCpsvocbng9k-6" edge="1">
          <mxGeometry relative="1" as="geometry">
            <mxPoint x="1573" y="705" as="sourcePoint" />
            <mxPoint x="1170" y="336" as="targetPoint" />
            <Array as="points">
              <mxPoint x="1090" y="401" />
              <mxPoint x="1090" y="126" />
            </Array>
          </mxGeometry>
        </mxCell>
        <mxCell id="hBEnvzYEh9CuPVGx5UaX-68" value="No" style="edgeLabel;html=1;align=center;verticalAlign=middle;resizable=0;points=[];" parent="hBEnvzYEh9CuPVGx5UaX-67" vertex="1" connectable="0">
          <mxGeometry x="-0.9826" relative="1" as="geometry">
            <mxPoint y="-15" as="offset" />
          </mxGeometry>
        </mxCell>
        <mxCell id="t0vVsV5E_F3Lqj4DwKU6-1" style="edgeStyle=orthogonalEdgeStyle;html=1;labelBackgroundColor=none;endArrow=open;endSize=8;strokeColor=#ff0000;fontFamily=Verdana;fontSize=12;align=left;exitX=1;exitY=0.5;exitDx=0;exitDy=0;entryX=0;entryY=0.5;entryDx=0;entryDy=0;" edge="1" parent="1" source="hBEnvzYEh9CuPVGx5UaX-2" target="-b5_aeEiTCpsvocbng9k-6">
          <mxGeometry relative="1" as="geometry">
            <mxPoint x="370" y="236" as="sourcePoint" />
            <mxPoint x="370" y="278" as="targetPoint" />
            <Array as="points">
              <mxPoint x="300" y="431" />
              <mxPoint x="300" y="126" />
            </Array>
          </mxGeometry>
        </mxCell>
        <mxCell id="t0vVsV5E_F3Lqj4DwKU6-3" value="Close db&amp;nbsp;&lt;div&gt;connection&lt;/div&gt;" style="rounded=1;whiteSpace=wrap;html=1;arcSize=24;fillColor=#ffffc0;strokeColor=#FF0000;shadow=0;comic=0;labelBackgroundColor=none;fontFamily=Verdana;fontSize=12;fontColor=#000000;align=center;" vertex="1" parent="1">
          <mxGeometry x="130" y="650" width="125" height="55" as="geometry" />
        </mxCell>
        <mxCell id="t0vVsV5E_F3Lqj4DwKU6-4" style="edgeStyle=orthogonalEdgeStyle;html=1;labelBackgroundColor=none;endArrow=open;endSize=8;strokeColor=#ff0000;fontFamily=Verdana;fontSize=12;align=left;entryX=0.5;entryY=1;entryDx=0;entryDy=0;exitX=0.5;exitY=0;exitDx=0;exitDy=0;" edge="1" parent="1" source="hBEnvzYEh9CuPVGx5UaX-40" target="t0vVsV5E_F3Lqj4DwKU6-3">
          <mxGeometry relative="1" as="geometry">
            <mxPoint x="490" y="730" as="sourcePoint" />
            <mxPoint x="726" y="878" as="targetPoint" />
            <Array as="points">
              <mxPoint x="193" y="730" />
              <mxPoint x="193" y="705" />
            </Array>
          </mxGeometry>
        </mxCell>
        <mxCell id="t0vVsV5E_F3Lqj4DwKU6-5" style="edgeStyle=orthogonalEdgeStyle;html=1;labelBackgroundColor=none;endArrow=open;endSize=8;strokeColor=#ff0000;fontFamily=Verdana;fontSize=12;align=left;exitX=0.5;exitY=0;exitDx=0;exitDy=0;entryX=0;entryY=0.5;entryDx=0;entryDy=0;" edge="1" parent="1" source="t0vVsV5E_F3Lqj4DwKU6-3" target="-b5_aeEiTCpsvocbng9k-6">
          <mxGeometry relative="1" as="geometry">
            <mxPoint x="900" y="325" as="sourcePoint" />
            <mxPoint x="1133" y="20" as="targetPoint" />
            <Array as="points">
              <mxPoint x="193" y="590" />
              <mxPoint x="300" y="590" />
              <mxPoint x="300" y="126" />
            </Array>
          </mxGeometry>
        </mxCell>
        <mxCell id="t0vVsV5E_F3Lqj4DwKU6-7" style="edgeStyle=orthogonalEdgeStyle;html=1;labelBackgroundColor=none;endArrow=open;endSize=8;strokeColor=#ff0000;fontFamily=Verdana;fontSize=12;align=left;exitX=0.5;exitY=0;exitDx=0;exitDy=0;entryX=0;entryY=0.5;entryDx=0;entryDy=0;" edge="1" parent="1" source="hBEnvzYEh9CuPVGx5UaX-56" target="-b5_aeEiTCpsvocbng9k-6">
          <mxGeometry relative="1" as="geometry">
            <mxPoint x="400" y="1094" as="sourcePoint" />
            <mxPoint x="675" y="570" as="targetPoint" />
            <Array as="points">
              <mxPoint x="437" y="710" />
              <mxPoint x="300" y="710" />
              <mxPoint x="300" y="126" />
            </Array>
          </mxGeometry>
        </mxCell>
        <mxCell id="t0vVsV5E_F3Lqj4DwKU6-9" value="No" style="edgeLabel;html=1;align=center;verticalAlign=middle;resizable=0;points=[];" vertex="1" connectable="0" parent="t0vVsV5E_F3Lqj4DwKU6-7">
          <mxGeometry x="-0.9592" y="-2" relative="1" as="geometry">
            <mxPoint x="11" as="offset" />
          </mxGeometry>
        </mxCell>
      </root>
    </mxGraphModel>
  </diagram>
</mxfile>
